<mxfile host="app.diagrams.net" modified="2024-05-20T13:35:47.179Z" agent="Mozilla/5.0 (Windows NT 10.0; Win64; x64) AppleWebKit/537.36 (KHTML, like Gecko) Chrome/124.0.0.0 Safari/537.36" version="24.4.4" etag="hP49sMPzcmbrA5KuM49l" type="github">
  <diagram name="Page-1" id="F2-nT9rf63WmCpbKMeli">
    <mxGraphModel>
      <root>
        <mxCell id="0" />
        <mxCell id="1" parent="0" />
      </root>
    </mxGraphModel>
  </diagram>
</mxfile>
